<svg xmlns="http://www.w3.org/2000/svg" viewBox="0 0 100 100" fill="none">
  <circle cx="50" cy="50" r="48" fill="#0A0A0A"/>
  <circle cx="50" cy="50" r="48" stroke="url(#border)" stroke-width="1.5"/>
  <defs>
    <linearGradient id="border" x1="0" y1="0" x2="100" y2="100">
      <stop offset="0%" stop-color="#6366F1" stop-opacity="0.4"/>
      <stop offset="100%" stop-color="#818CF8" stop-opacity="0.3"/>
    </linearGradient>
    <linearGradient id="birdGrad" x1="0" y1="0" x2="100" y2="80">
      <stop offset="0%" stop-color="#818CF8"/>
      <stop offset="60%" stop-color="#F0F2F5"/>
      <stop offset="100%" stop-color="#A5B4FC"/>
    </linearGradient>
  </defs>
  <g transform="translate(15, 22) scale(0.7)">
    <path d="M50 70 C30 70 15 55 15 40 C15 25 30 15 45 15 C50 15 55 18 58 22" stroke="url(#birdGrad)" stroke-width="3" fill="none" stroke-linecap="round"/>
    <path d="M45 35 C55 20 75 15 95 25 C80 28 68 35 60 45" stroke="url(#birdGrad)" stroke-width="3" fill="none" stroke-linecap="round"/>
    <path d="M20 55 C5 50 -5 40 0 30" stroke="url(#birdGrad)" stroke-width="3" fill="none" stroke-linecap="round"/>
    <circle cx="52" cy="25" r="3" fill="#818CF8"/>
    <path d="M58 22 L68 20 L60 27" stroke="url(#birdGrad)" stroke-width="2.5" fill="none" stroke-linecap="round" stroke-linejoin="round"/>
  </g>
</svg>
